:SAMPLES-PER-SECOND 30
:FRAME-RANGE 1-2009
:FULLY-SPECIFIED
:DEGREES
1382
root  -23.2264 38.0848 82.4759 2.13414 50.5133 -1.7242
RightUpLeg  6.53618 -3.43767 0.464593
RightLeg  16.1588 11.121 2.9215
RightFoot  -20.2729 -0.377567 -3.07805
RightToes  2.96424e-010 1.2921e-014 -6.02303e-014
Spine  -6.84823 1.44036 5.68891
Spine1  10.5662 1.58646 -2.31499
HEad  14.5644 25.5909 -1.50629
LeftShoulder1  -0.409696 5.32813 -13.4252
LeftArm  -3.74277 38.8345 -17.9839
LeftForeArm  -34.6936 6.1305 -6.91706
LeftHand  -0.0301033 8.19391 0.569677
RightShoulder  1.55018 1.59452 25.5635
RightArm  -20.4185 11.2738 40.7542
RightForeArm  42.6807 10.7852 6.91822
RightHand  -0.160146 -4.38688 -17.2667
LeftUpLeg  -26.3844 -0.0435058 2.04643
LeftLeg  -0.774151 16.1913 2.1419
LeftFoot  -3.44284 0.154864 -1.94343
LeftToes  -1.2485e-010 1.20979e-011 -1.0929e-011
1383
root  -21.5605 37.7492 83.2793 1.42456 50.7235 -2.53746
RightUpLeg  9.38041 -3.01073 0.158836
RightLeg  16.8167 11.1485 3.10716
RightFoot  -21.314 -0.309971 -1.89972
RightToes  2.96424e-010 1.2921e-014 -6.02303e-014
Spine  -7.48992 1.75821 6.04289
Spine1  11.4396 1.91174 -2.52417
HEad  13.9754 24.9326 -1.41225
LeftShoulder1  -0.410361 5.37731 -12.9324
LeftArm  -3.71228 38.9341 -17.7804
LeftForeArm  -34.3545 6.1366 -6.88194
LeftHand  -0.0414335 8.13948 0.11959
RightShoulder  1.6636 2.02367 25.1396
RightArm  -20.0138 14.1205 40.4878
RightForeArm  43.6259 10.3055 7.14161
RightHand  -0.146992 -4.49432 -17.6379
LeftUpLeg  -26.5297 -1.26364 2.12808
LeftLeg  -5.69763 18.4979 2.10562
LeftFoot  -6.74464 0.12278 -2.04982
LeftToes  -1.2485e-010 1.20979e-011 -1.0929e-011
1384
root  -19.8725 37.3156 84.0686 0.947647 51.6318 -2.96269
RightUpLeg  11.3228 -1.57365 -0.0496903
RightLeg  19.6233 10.1107 3.66832
RightFoot  -22.4757 -0.20919 -0.58518
RightToes  2.96424e-010 1.2921e-014 -6.02303e-014
Spine  -7.10442 1.85674 5.92103
Spine1  11.3753 2.00425 -2.48908
HEad  13.0028 24.3449 -1.39837
LeftShoulder1  -0.369674 5.19671 -12.647
LeftArm  -3.77838 38.2016 -18.1759
LeftForeArm  -30.1104 6.32588 -7.15067
LeftHand  -0.0428921 7.63726 -0.0577273
RightShoulder  1.75695 2.32413 25.1421
RightArm  -19.5666 15.9284 39.8619
RightForeArm  44.1831 10.2024 7.30615
RightHand  -0.167963 -4.33543 -17.2999
LeftUpLeg  -29.0115 -0.54607 1.6984
LeftLeg  0.579966 15.0606 2.30897
LeftFoot  -6.31683 0.165897 -2.91664
LeftToes  -1.2485e-010 1.20979e-011 -1.0929e-011
1385
root  -18.1424 37.0869 84.876 2.15649 52.349 -1.35028
RightUpLeg  12.7847 0.701529 -1.20288
RightLeg  22.9013 9.81245 4.30903
RightFoot  -21.8043 0.0602523 2.27108
RightToes  2.96424e-010 1.2921e-014 -6.02303e-014
Spine  -7.15334 2.10978 4.72529
Spine1  11.9717 2.57188 -3.17007
HEad  12.05 23.9717 -1.16082
LeftShoulder1  -0.329259 4.99626 -12.5667
LeftArm  -3.94985 36.6006 -18.9668
LeftForeArm  -25.8546 6.50699 -7.43319
LeftHand  -0.0374791 7.12723 0.0865365
RightShoulder  1.81686 2.45892 25.4721
RightArm  -19.4776 15.8528 39.5836
RightForeArm  43.8075 10.725 7.19758
RightHand  -0.122344 -4.67503 -18.0904
LeftUpLeg  -30.8413 -1.6541 0.12081
LeftLeg  7.97226 12.8268 3.09425
LeftFoot  -1.67114 0.0117455 -0.0196386
LeftToes  -1.2485e-010 1.20979e-011 -1.0929e-011
1386
root  -16.3455 36.9285 85.6386 4.89391 52.128 2.17371
RightUpLeg  11.5483 2.71713 -4.27911
RightLeg  30.9466 10.8312 6.71408
RightFoot  -18.9551 0.249443 5.67681
RightToes  2.96424e-010 1.2921e-014 -6.02303e-014
Spine  -6.97794 2.47576 2.87971
Spine1  12.0859 3.38935 -4.61697
HEad  12.1702 24.8767 -0.619274
LeftShoulder1  -0.384898 5.23398 -13.0994
LeftArm  -4.02886 34.7731 -19.987
LeftForeArm  -23.4294 5.1116 -7.85976
LeftHand  -0.0333989 6.98726 0.49759
RightShoulder  1.88845 2.52343 26.3952
RightArm  -20.1208 15.4648 39.7955
RightForeArm  44.593 10.0261 7.22733
RightHand  -0.0919266 -4.88512 -18.6431
LeftUpLeg  -31.4209 -4.83181 -1.64775
LeftLeg  13.3084 13.7958 4.58658
LeftFoot  4.24983 -0.0186295 -0.0523027
LeftToes  -1.2485e-010 1.20979e-011 -1.0929e-011
1387
root  -14.534 36.7764 86.3636 7.20035 53.0419 5.23253
RightUpLeg  7.4637 1.8978 -8.20999
RightLeg  43.2989 12.2486 11.8256
RightFoot  -11.4655 -0.0662598 10.9009
RightToes  2.96424e-010 1.2921e-014 -6.02303e-014
Spine  -6.756 2.55077 1.86008
Spine1  11.7051 3.68171 -5.50501
HEad  13.1209 25.8904 -0.444656
LeftShoulder1  -0.345747 4.95152 -14.2465
LeftArm  -4.69058 31.2506 -22.0923
LeftForeArm  -21.6027 4.28506 -8.25958
LeftHand  -0.0292868 7.04323 1.03507
RightShoulder  1.93865 2.73484 26.085
RightArm  -22.9611 14.0362 41.5556
RightForeArm  47.3491 8.51129 6.44318
RightHand  -0.175913 -4.3054 -17.703
LeftUpLeg  -31.4664 -4.89902 -4.69362
LeftLeg  18.9167 12.8118 5.16247
LeftFoot  4.67226 0.0653386 -0.666298
LeftToes  -1.2485e-010 1.20979e-011 -1.0929e-011
